<?xml version="1.0" encoding="UTF-8"?>
<svg id="Layer_2" data-name="Layer 2" xmlns="http://www.w3.org/2000/svg" xmlns:xlink="http://www.w3.org/1999/xlink" viewBox="0 0 32.15 28.3">
  <defs>
    <style>
      .cls-1 {
        fill: url(#linear-gradient);
      }
    </style>
    <linearGradient id="linear-gradient" x1="4.42" y1="-.31" x2="27.53" y2="22.8" gradientUnits="userSpaceOnUse">
      <stop offset="0" stop-color="#e53679"/>
      <stop offset="1" stop-color="#651345"/>
    </linearGradient>
  </defs>
  <g id="Layer_1-2" data-name="Layer 1">
    <path class="cls-1" d="M.62,0h5.2c.16,0,.32.07.44.18l4.47,4.47v.07h.07s2.43,2.43,2.43,2.43c.12.12.18.27.18.44v4.2s-.67-.09-.67-.09c-.11.23-.2.46-.29.71-.08.25-.15.5-.21.76l1.16.66v.74s0,.59,0,.59l-1.18.64c.1.51.26,1,.47,1.47l1.33-.15.78,1.08-.58,1.21c.37.35.79.66,1.25.92l.99-.91,1.26.42.25,1.32c.46.06.92.06,1.38.02.06,0,.11,0,.17-.02l.27-1.32.05-.02,1.22-.39.98.92c.45-.25.87-.56,1.26-.91l-.56-1.22.79-1.07.6.07.74.09c.1-.22.19-.45.28-.69.09-.26.16-.52.21-.78l-1.17-.66v-1.33s1.18-.65,1.18-.65c-.1-.51-.26-1-.47-1.47l-1.33.15-.78-1.08.57-1.22c-.15-.14-.31-.27-.47-.4,0,0,0,0-.01-.01-.14-.11-.31-.24-.47-.33,0,0-.01,0-.02-.01-.09-.06-.18-.11-.28-.17l-.99.91-.06-.02-.05-.05-.13-.13-1.21-1.21h-.01s-.34-.36-.34-.36l-.35-.35c-.12-.12-.18-.27-.18-.44V.62C18.76.28,19.03,0,19.37,0h5.2c.16,0,.32.07.44.18l1.34,1.34.45.45.89.89,1.34,1.34.45.45v.07s.07,0,.07,0l2.43,2.43c.12.12.18.27.18.44v11.99c0,.16-.06.32-.18.44l-.27.27-.77.77c-.12.12-.27.18-.44.18h-4.85c-.16,0-.32.07-.44.18l-.21.21-.71.71c-.12.12-.18.27-.18.44v4.85c0,.16-.06.32-.18.44l-.07.07c-.12.12-.27.18-.44.18h-10.23c-.16,0-.32-.07-.44-.18l-2.18-2.18-.31-.31-1.34-1.34-.89-.89-.45-.45-1.34-1.34-.71-.71c-.12-.12-.18-.27-.18-.44v-7.53c0-.16-.06-.32-.18-.44L.18,7.51C.07,7.39,0,7.23,0,7.07V.62C0,.28.28,0,.62,0ZM18.78,11.9c-1.49,0-2.71,1.21-2.71,2.71s1.21,2.71,2.71,2.71,2.71-1.21,2.71-2.71c0-1.49-1.21-2.71-2.71-2.71Z"/>
  </g>
</svg>